<mxfile host="app.diagrams.net" modified="2020-12-09T19:11:58.605Z" agent="5.0 (Windows)" etag="M_I_fW_BFxKWrZfDK9RM" version="13.10.9" type="github">
  <diagram name="Page-1" id="13e1069c-82ec-6db2-03f1-153e76fe0fe0">
    <mxGraphModel dx="1256" dy="703" grid="1" gridSize="10" guides="1" tooltips="1" connect="1" arrows="1" fold="1" page="1" pageScale="1" pageWidth="850" pageHeight="1100" background="#ffffff" math="0" shadow="0">
      <root>
        <mxCell id="0" />
        <mxCell id="1" parent="0" />
        <mxCell id="dGkHtQzwEty1PiVqtM9C-1" value="GunSystem" style="rounded=0;whiteSpace=wrap;html=1;" vertex="1" parent="1">
          <mxGeometry x="345" y="35" width="120" height="60" as="geometry" />
        </mxCell>
        <mxCell id="dGkHtQzwEty1PiVqtM9C-2" value="" style="endArrow=none;dashed=1;html=1;entryX=0.5;entryY=1;entryDx=0;entryDy=0;" edge="1" parent="1" source="dGkHtQzwEty1PiVqtM9C-67">
          <mxGeometry width="50" height="50" relative="1" as="geometry">
            <mxPoint x="225" y="840" as="sourcePoint" />
            <mxPoint x="224.5" y="103" as="targetPoint" />
          </mxGeometry>
        </mxCell>
        <mxCell id="dGkHtQzwEty1PiVqtM9C-4" value="" style="endArrow=none;dashed=1;html=1;" edge="1" parent="1" source="dGkHtQzwEty1PiVqtM9C-75">
          <mxGeometry width="50" height="50" relative="1" as="geometry">
            <mxPoint x="815" y="510" as="sourcePoint" />
            <mxPoint x="814.5" y="90" as="targetPoint" />
          </mxGeometry>
        </mxCell>
        <mxCell id="dGkHtQzwEty1PiVqtM9C-6" value="" style="endArrow=none;dashed=1;html=1;entryX=0.5;entryY=1;entryDx=0;entryDy=0;" edge="1" parent="1" source="dGkHtQzwEty1PiVqtM9C-38" target="dGkHtQzwEty1PiVqtM9C-1">
          <mxGeometry width="50" height="50" relative="1" as="geometry">
            <mxPoint x="480" y="1075" as="sourcePoint" />
            <mxPoint x="510" y="145" as="targetPoint" />
          </mxGeometry>
        </mxCell>
        <mxCell id="dGkHtQzwEty1PiVqtM9C-37" value="&lt;b&gt;&lt;font style=&quot;font-size: 14px&quot;&gt;GUN INSTALLATION&lt;/font&gt;&lt;/b&gt;" style="text;html=1;strokeColor=none;fillColor=none;align=center;verticalAlign=middle;whiteSpace=wrap;rounded=0;" vertex="1" parent="1">
          <mxGeometry x="60" y="35" width="40" height="20" as="geometry" />
        </mxCell>
        <mxCell id="dGkHtQzwEty1PiVqtM9C-38" value="" style="html=1;points=[];perimeter=orthogonalPerimeter;" vertex="1" parent="1">
          <mxGeometry x="400" y="130" width="10" height="139" as="geometry" />
        </mxCell>
        <mxCell id="dGkHtQzwEty1PiVqtM9C-39" value="" style="endArrow=none;dashed=1;html=1;entryX=0.5;entryY=1;entryDx=0;entryDy=0;" edge="1" parent="1" target="dGkHtQzwEty1PiVqtM9C-38" source="dGkHtQzwEty1PiVqtM9C-61">
          <mxGeometry width="50" height="50" relative="1" as="geometry">
            <mxPoint x="410" y="920" as="sourcePoint" />
            <mxPoint x="480" y="95" as="targetPoint" />
          </mxGeometry>
        </mxCell>
        <mxCell id="dGkHtQzwEty1PiVqtM9C-40" value="par" style="shape=umlFrame;whiteSpace=wrap;html=1;" vertex="1" parent="1">
          <mxGeometry x="310" y="124.5" width="450" height="150" as="geometry" />
        </mxCell>
        <mxCell id="dGkHtQzwEty1PiVqtM9C-41" value="" style="endArrow=open;endFill=0;endSize=6;html=1;exitX=-0.1;exitY=0.072;exitDx=0;exitDy=0;exitPerimeter=0;entryX=0.94;entryY=0.078;entryDx=0;entryDy=0;entryPerimeter=0;" edge="1" parent="1" source="dGkHtQzwEty1PiVqtM9C-49" target="dGkHtQzwEty1PiVqtM9C-38">
          <mxGeometry width="100" relative="1" as="geometry">
            <mxPoint x="655" y="120" as="sourcePoint" />
            <mxPoint x="490" y="130" as="targetPoint" />
          </mxGeometry>
        </mxCell>
        <mxCell id="dGkHtQzwEty1PiVqtM9C-42" value="" style="endArrow=open;endFill=0;endSize=6;html=1;entryX=1;entryY=0.288;entryDx=0;entryDy=0;entryPerimeter=0;exitX=-0.3;exitY=0.288;exitDx=0;exitDy=0;exitPerimeter=0;" edge="1" parent="1" source="dGkHtQzwEty1PiVqtM9C-49" target="dGkHtQzwEty1PiVqtM9C-38">
          <mxGeometry width="100" relative="1" as="geometry">
            <mxPoint x="625" y="170" as="sourcePoint" />
            <mxPoint x="485" y="170.01999999999998" as="targetPoint" />
          </mxGeometry>
        </mxCell>
        <mxCell id="dGkHtQzwEty1PiVqtM9C-43" value="GunBuidler" style="rounded=0;whiteSpace=wrap;html=1;" vertex="1" parent="1">
          <mxGeometry x="610" y="25" width="120" height="60" as="geometry" />
        </mxCell>
        <mxCell id="dGkHtQzwEty1PiVqtM9C-44" value="" style="endArrow=open;endFill=0;endSize=6;html=1;exitX=0;exitY=0.719;exitDx=0;exitDy=0;exitPerimeter=0;" edge="1" parent="1" source="dGkHtQzwEty1PiVqtM9C-49" target="dGkHtQzwEty1PiVqtM9C-38">
          <mxGeometry width="100" relative="1" as="geometry">
            <mxPoint x="625" y="230" as="sourcePoint" />
            <mxPoint x="485" y="230.01999999999998" as="targetPoint" />
          </mxGeometry>
        </mxCell>
        <mxCell id="dGkHtQzwEty1PiVqtM9C-45" value="" style="endArrow=open;endFill=0;endSize=6;html=1;exitX=-0.1;exitY=0.496;exitDx=0;exitDy=0;exitPerimeter=0;entryX=1.2;entryY=0.496;entryDx=0;entryDy=0;entryPerimeter=0;" edge="1" parent="1" source="dGkHtQzwEty1PiVqtM9C-49" target="dGkHtQzwEty1PiVqtM9C-38">
          <mxGeometry width="100" relative="1" as="geometry">
            <mxPoint x="640" y="200" as="sourcePoint" />
            <mxPoint x="490" y="189" as="targetPoint" />
          </mxGeometry>
        </mxCell>
        <mxCell id="dGkHtQzwEty1PiVqtM9C-46" value="" style="endArrow=open;endFill=0;endSize=6;html=1;entryX=1;entryY=0.935;entryDx=0;entryDy=0;entryPerimeter=0;exitX=0.1;exitY=0.942;exitDx=0;exitDy=0;exitPerimeter=0;" edge="1" parent="1" source="dGkHtQzwEty1PiVqtM9C-49" target="dGkHtQzwEty1PiVqtM9C-38">
          <mxGeometry width="100" relative="1" as="geometry">
            <mxPoint x="625" y="250" as="sourcePoint" />
            <mxPoint x="485" y="250.01999999999998" as="targetPoint" />
          </mxGeometry>
        </mxCell>
        <mxCell id="dGkHtQzwEty1PiVqtM9C-48" value="" style="endArrow=none;dashed=1;html=1;entryX=0.5;entryY=1;entryDx=0;entryDy=0;" edge="1" parent="1" source="dGkHtQzwEty1PiVqtM9C-49" target="dGkHtQzwEty1PiVqtM9C-43">
          <mxGeometry width="50" height="50" relative="1" as="geometry">
            <mxPoint x="650" y="408" as="sourcePoint" />
            <mxPoint x="710" y="160" as="targetPoint" />
          </mxGeometry>
        </mxCell>
        <mxCell id="dGkHtQzwEty1PiVqtM9C-49" value="" style="html=1;points=[];perimeter=orthogonalPerimeter;" vertex="1" parent="1">
          <mxGeometry x="665" y="130" width="10" height="139" as="geometry" />
        </mxCell>
        <mxCell id="dGkHtQzwEty1PiVqtM9C-50" value="" style="endArrow=none;dashed=1;html=1;entryX=0.5;entryY=1;entryDx=0;entryDy=0;" edge="1" parent="1" target="dGkHtQzwEty1PiVqtM9C-49">
          <mxGeometry width="50" height="50" relative="1" as="geometry">
            <mxPoint x="670" y="350" as="sourcePoint" />
            <mxPoint x="650" y="85" as="targetPoint" />
          </mxGeometry>
        </mxCell>
        <mxCell id="dGkHtQzwEty1PiVqtM9C-51" value="&lt;font style=&quot;font-size: 10px&quot;&gt;connectMagazineLevelSensor(ElectronicDevice*)&lt;/font&gt;" style="text;html=1;strokeColor=none;fillColor=none;align=center;verticalAlign=middle;whiteSpace=wrap;rounded=0;" vertex="1" parent="1">
          <mxGeometry x="520" y="150" width="40" height="20" as="geometry" />
        </mxCell>
        <mxCell id="dGkHtQzwEty1PiVqtM9C-52" value="&lt;font style=&quot;font-size: 10px&quot;&gt;connectBatterySensor(ElectronicDevice*)&lt;/font&gt;" style="text;whiteSpace=wrap;html=1;" vertex="1" parent="1">
          <mxGeometry x="450" y="120" width="160" height="30" as="geometry" />
        </mxCell>
        <mxCell id="dGkHtQzwEty1PiVqtM9C-53" value="&lt;font style=&quot;font-size: 10px&quot;&gt;screenDisplay(ElectronicDevice*)&lt;/font&gt;" style="text;whiteSpace=wrap;html=1;" vertex="1" parent="1">
          <mxGeometry x="465" y="179" width="190" height="30" as="geometry" />
        </mxCell>
        <mxCell id="dGkHtQzwEty1PiVqtM9C-54" value="&lt;font style=&quot;font-size: 10px&quot;&gt;connectRadioModule(ElectronicDevice*)&lt;/font&gt;" style="text;whiteSpace=wrap;html=1;" vertex="1" parent="1">
          <mxGeometry x="450" y="209" width="160" height="30" as="geometry" />
        </mxCell>
        <mxCell id="dGkHtQzwEty1PiVqtM9C-55" value="&lt;font style=&quot;font-size: 10px&quot;&gt;connectFingerPrintScanner(ElectronicDevice*)&lt;/font&gt;" style="text;whiteSpace=wrap;html=1;" vertex="1" parent="1">
          <mxGeometry x="440" y="239" width="160" height="30" as="geometry" />
        </mxCell>
        <mxCell id="dGkHtQzwEty1PiVqtM9C-57" value="Policeman" style="shape=umlActor;verticalLabelPosition=bottom;verticalAlign=top;html=1;outlineConnect=0;" vertex="1" parent="1">
          <mxGeometry x="210" y="15" width="30" height="60" as="geometry" />
        </mxCell>
        <mxCell id="dGkHtQzwEty1PiVqtM9C-59" value="Local Distributor" style="shape=umlActor;verticalLabelPosition=bottom;verticalAlign=top;html=1;outlineConnect=0;" vertex="1" parent="1">
          <mxGeometry x="790" y="10" width="30" height="60" as="geometry" />
        </mxCell>
        <mxCell id="dGkHtQzwEty1PiVqtM9C-60" value="" style="html=1;points=[];perimeter=orthogonalPerimeter;" vertex="1" parent="1">
          <mxGeometry x="220" y="300" width="10" height="139" as="geometry" />
        </mxCell>
        <mxCell id="dGkHtQzwEty1PiVqtM9C-61" value="" style="html=1;points=[];perimeter=orthogonalPerimeter;" vertex="1" parent="1">
          <mxGeometry x="400" y="300" width="10" height="139" as="geometry" />
        </mxCell>
        <mxCell id="dGkHtQzwEty1PiVqtM9C-62" value="" style="endArrow=none;dashed=1;html=1;entryX=0.5;entryY=1;entryDx=0;entryDy=0;" edge="1" parent="1" source="dGkHtQzwEty1PiVqtM9C-69" target="dGkHtQzwEty1PiVqtM9C-61">
          <mxGeometry width="50" height="50" relative="1" as="geometry">
            <mxPoint x="410" y="920" as="sourcePoint" />
            <mxPoint x="405" y="269" as="targetPoint" />
          </mxGeometry>
        </mxCell>
        <mxCell id="dGkHtQzwEty1PiVqtM9C-63" value="" style="endArrow=classic;html=1;" edge="1" parent="1">
          <mxGeometry width="50" height="50" relative="1" as="geometry">
            <mxPoint x="400" y="357" as="sourcePoint" />
            <mxPoint x="231" y="357" as="targetPoint" />
          </mxGeometry>
        </mxCell>
        <mxCell id="dGkHtQzwEty1PiVqtM9C-66" value="turnOn()" style="text;html=1;align=center;verticalAlign=middle;resizable=0;points=[];autosize=1;" vertex="1" parent="1">
          <mxGeometry x="280" y="330" width="60" height="20" as="geometry" />
        </mxCell>
        <mxCell id="dGkHtQzwEty1PiVqtM9C-67" value="" style="html=1;points=[];perimeter=orthogonalPerimeter;" vertex="1" parent="1">
          <mxGeometry x="220" y="500" width="10" height="139" as="geometry" />
        </mxCell>
        <mxCell id="dGkHtQzwEty1PiVqtM9C-68" value="" style="endArrow=none;dashed=1;html=1;entryX=0.5;entryY=1;entryDx=0;entryDy=0;" edge="1" parent="1" target="dGkHtQzwEty1PiVqtM9C-67">
          <mxGeometry width="50" height="50" relative="1" as="geometry">
            <mxPoint x="225" y="970" as="sourcePoint" />
            <mxPoint x="224.5" y="103" as="targetPoint" />
          </mxGeometry>
        </mxCell>
        <mxCell id="dGkHtQzwEty1PiVqtM9C-69" value="" style="html=1;points=[];perimeter=orthogonalPerimeter;" vertex="1" parent="1">
          <mxGeometry x="400" y="500" width="10" height="139" as="geometry" />
        </mxCell>
        <mxCell id="dGkHtQzwEty1PiVqtM9C-70" value="" style="endArrow=none;dashed=1;html=1;entryX=0.5;entryY=1;entryDx=0;entryDy=0;" edge="1" parent="1" source="dGkHtQzwEty1PiVqtM9C-79" target="dGkHtQzwEty1PiVqtM9C-69">
          <mxGeometry width="50" height="50" relative="1" as="geometry">
            <mxPoint x="405" y="960" as="sourcePoint" />
            <mxPoint x="405" y="439" as="targetPoint" />
          </mxGeometry>
        </mxCell>
        <mxCell id="dGkHtQzwEty1PiVqtM9C-71" value="" style="endArrow=classic;html=1;entryX=-0.3;entryY=0.482;entryDx=0;entryDy=0;entryPerimeter=0;" edge="1" parent="1" target="dGkHtQzwEty1PiVqtM9C-69">
          <mxGeometry width="50" height="50" relative="1" as="geometry">
            <mxPoint x="233" y="567" as="sourcePoint" />
            <mxPoint x="370" y="550" as="targetPoint" />
          </mxGeometry>
        </mxCell>
        <mxCell id="dGkHtQzwEty1PiVqtM9C-72" value="takeFingerPrint()" style="text;html=1;align=center;verticalAlign=middle;resizable=0;points=[];autosize=1;" vertex="1" parent="1">
          <mxGeometry x="255" y="540" width="110" height="20" as="geometry" />
        </mxCell>
        <mxCell id="dGkHtQzwEty1PiVqtM9C-74" value="" style="endArrow=none;dashed=1;html=1;" edge="1" parent="1" source="dGkHtQzwEty1PiVqtM9C-81">
          <mxGeometry width="50" height="50" relative="1" as="geometry">
            <mxPoint x="814.5" y="930" as="sourcePoint" />
            <mxPoint x="815" y="680" as="targetPoint" />
          </mxGeometry>
        </mxCell>
        <mxCell id="dGkHtQzwEty1PiVqtM9C-76" value="" style="endArrow=classic;html=1;entryX=-0.4;entryY=0.504;entryDx=0;entryDy=0;entryPerimeter=0;exitX=1;exitY=0.792;exitDx=0;exitDy=0;exitPerimeter=0;" edge="1" parent="1" source="dGkHtQzwEty1PiVqtM9C-69" target="dGkHtQzwEty1PiVqtM9C-75">
          <mxGeometry width="50" height="50" relative="1" as="geometry">
            <mxPoint x="430" y="640" as="sourcePoint" />
            <mxPoint x="480" y="590" as="targetPoint" />
          </mxGeometry>
        </mxCell>
        <mxCell id="dGkHtQzwEty1PiVqtM9C-75" value="" style="html=1;points=[];perimeter=orthogonalPerimeter;" vertex="1" parent="1">
          <mxGeometry x="810" y="540" width="10" height="139" as="geometry" />
        </mxCell>
        <mxCell id="dGkHtQzwEty1PiVqtM9C-78" value="sendMessage()" style="text;html=1;align=center;verticalAlign=middle;resizable=0;points=[];autosize=1;" vertex="1" parent="1">
          <mxGeometry x="565" y="590" width="100" height="20" as="geometry" />
        </mxCell>
        <mxCell id="dGkHtQzwEty1PiVqtM9C-79" value="" style="html=1;points=[];perimeter=orthogonalPerimeter;" vertex="1" parent="1">
          <mxGeometry x="400" y="700" width="10" height="80" as="geometry" />
        </mxCell>
        <mxCell id="dGkHtQzwEty1PiVqtM9C-80" value="" style="endArrow=none;dashed=1;html=1;entryX=0.5;entryY=1;entryDx=0;entryDy=0;" edge="1" parent="1" target="dGkHtQzwEty1PiVqtM9C-79">
          <mxGeometry width="50" height="50" relative="1" as="geometry">
            <mxPoint x="405" y="970" as="sourcePoint" />
            <mxPoint x="405" y="639" as="targetPoint" />
          </mxGeometry>
        </mxCell>
        <mxCell id="dGkHtQzwEty1PiVqtM9C-81" value="" style="html=1;points=[];perimeter=orthogonalPerimeter;" vertex="1" parent="1">
          <mxGeometry x="810" y="700" width="10" height="80" as="geometry" />
        </mxCell>
        <mxCell id="dGkHtQzwEty1PiVqtM9C-82" value="" style="endArrow=none;dashed=1;html=1;" edge="1" parent="1" target="dGkHtQzwEty1PiVqtM9C-81">
          <mxGeometry width="50" height="50" relative="1" as="geometry">
            <mxPoint x="815" y="970" as="sourcePoint" />
            <mxPoint x="815" y="680" as="targetPoint" />
          </mxGeometry>
        </mxCell>
        <mxCell id="dGkHtQzwEty1PiVqtM9C-83" value="" style="endArrow=classic;html=1;entryX=1;entryY=0.475;entryDx=0;entryDy=0;entryPerimeter=0;" edge="1" parent="1" target="dGkHtQzwEty1PiVqtM9C-79">
          <mxGeometry width="50" height="50" relative="1" as="geometry">
            <mxPoint x="810" y="740" as="sourcePoint" />
            <mxPoint x="641" y="740" as="targetPoint" />
          </mxGeometry>
        </mxCell>
        <mxCell id="dGkHtQzwEty1PiVqtM9C-84" value="addPoliceman()" style="text;html=1;align=center;verticalAlign=middle;resizable=0;points=[];autosize=1;" vertex="1" parent="1">
          <mxGeometry x="565" y="720" width="100" height="20" as="geometry" />
        </mxCell>
        <mxCell id="dGkHtQzwEty1PiVqtM9C-85" value="" style="html=1;points=[];perimeter=orthogonalPerimeter;" vertex="1" parent="1">
          <mxGeometry x="400" y="700" width="10" height="80" as="geometry" />
        </mxCell>
        <mxCell id="dGkHtQzwEty1PiVqtM9C-87" value="" style="html=1;points=[];perimeter=orthogonalPerimeter;" vertex="1" parent="1">
          <mxGeometry x="400" y="830" width="10" height="80" as="geometry" />
        </mxCell>
        <mxCell id="dGkHtQzwEty1PiVqtM9C-88" value="" style="endArrow=classic;html=1;" edge="1" parent="1">
          <mxGeometry width="50" height="50" relative="1" as="geometry">
            <mxPoint x="400" y="871" as="sourcePoint" />
            <mxPoint x="230" y="869" as="targetPoint" />
          </mxGeometry>
        </mxCell>
        <mxCell id="dGkHtQzwEty1PiVqtM9C-89" value="blockGun()" style="text;html=1;align=center;verticalAlign=middle;resizable=0;points=[];autosize=1;" vertex="1" parent="1">
          <mxGeometry x="270" y="850" width="80" height="20" as="geometry" />
        </mxCell>
      </root>
    </mxGraphModel>
  </diagram>
</mxfile>
